 <!DOCTYPE svg PUBLIC "-//W3C//DTD SVG 1.1//EN" "http://www.w3.org/Graphics/SVG/1.1/DTD/svg11.dtd">
<svg id="a8ecb180-b77f-4da9-8063-80c00c4bd568" data-name="Layer 1" xmlns="http://www.w3.org/2000/svg" width="865.76" height="682.89" viewBox="0 0 865.76 682.89">
<defs>
<style xmlns="http://www.w3.org/1999/xhtml">*, ::after, ::before { box-sizing: border-box; }
img, svg { vertical-align: middle; }
</style>
<style xmlns="http://www.w3.org/1999/xhtml">*, body, html { -webkit-font-smoothing: antialiased; }
img, svg { max-width: 100%; }
</style>
</defs>
<rect x="154.61" y="181.83" width="581.55" height="359.11" rx="11.39" fill="#ccc"/>
<rect x="166.76" y="240.29" width="558.02" height="287.74" fill="#fff"/>
<path d="M475.76,395h49.91a10.71,10.71,0,0,1,10.72,10.71H475.76Z" fill="#d1d3d4"/>
<rect x="226.74" y="210.68" width="498.04" height="22.78" fill="#fff"/>
<polygon points="177.17 217.44 177.17 212.36 167.52 222.07 177.17 231.91 177.17 226.58 186.82 226.58 186.82 217.44 177.17 217.44" fill="#fff"/>
<polygon points="208.85 226.83 208.85 231.91 218.5 222.21 208.85 212.36 208.85 217.69 199.2 217.69 199.2 226.83 208.85 226.83" fill="#fff"/>
<circle cx="670.87" cy="196.41" r="6.71" fill="#fff"/>
<circle cx="693.77" cy="197.14" r="6.71" fill="#fff"/>
<circle cx="716.66" cy="197.14" r="6.71" fill="#fff"/>
<rect x="180.94" y="247.47" width="92" height="6.57" rx="3.29" fill="#bcbec0"/>
<rect x="180.94" y="260.32" width="58.57" height="6.57" rx="3.29" fill="#bcbec0"/>
<path d="M180.94,274.77V485.2h210.7V318.11s-1.09-8.18-8.18-12.91c-6.22-4.15-14.39-3.59-20.47.76a15.81,15.81,0,0,0-6.85,11.1Z" fill="#bcbec0"/>
<path d="M364.49,324.37s-3-19.49,12.36-21.76c0,0-16-3.3-20.71,14.45l-175.2-42.29Z" opacity="0.2"/>
<path d="M376.85,302.61,180.94,274.77l175.2,42.29S359.4,300.54,376.85,302.61Z" fill="#d1d3d4"/>
<rect x="122.39" y="352.12" width="75.45" height="51.84" rx="1.56" fill="#d1d3d4"/>
<polygon points="160.12 384.81 125.27 355.93 125.91 355.16 160.12 383.51 194.12 355.16 194.76 355.93 160.12 384.81" fill="#bcbec0"/>
<rect x="121.33" y="388.1" width="34.67" height="1" transform="translate(-221.06 186.53) rotate(-41.04)" fill="#bcbec0"/>
<rect x="180.95" y="371.32" width="1" height="34.55" transform="translate(-230.45 269.14) rotate(-48.8)" fill="#bcbec0"/>
<rect x="63.08" y="362.44" width="51.22" height="35.19" rx="1.56" fill="#d1d3d4"/>
<polygon points="88.69 384.84 64.93 365.15 65.57 364.38 88.69 383.54 111.67 364.39 112.31 365.15 88.69 384.84" fill="#bcbec0"/>
<rect x="62.36" y="386.7" width="23.54" height="1" transform="translate(-236.01 143.82) rotate(-41.04)" fill="#bcbec0"/>
<rect x="102.67" y="375.48" width="1" height="23.45" transform="translate(-256.12 209.77) rotate(-48.8)" fill="#bcbec0"/>
<circle cx="221.63" cy="378.6" r="7.02" fill="#fff"/>
<circle cx="246.24" cy="378.6" r="7.02" fill="#fff"/>
<circle cx="271.87" cy="378.6" r="7.02" fill="#fff"/>
<path d="M154.61,421.07l46.64-14.18a2.18,2.18,0,0,0,1.53-2.35l-4.93-42.05V402.4s-.11,1.55-1.56,1.55H154.61Z" fill="#3f3d56" opacity="0.24"/>
<path d="M407.28,485.2V405.66A10.71,10.71,0,0,1,418,395h64.79a10.71,10.71,0,0,1,10.72,10.71H710.8V485.2Z" fill="#bcbec0"/>
<polygon points="407.28 274.76 407.28 385.62 543.87 374.4 543.87 263.61 407.28 274.76" fill="#d1d3d4"/>
<polygon points="555.87 385.62 409.59 385.62 543.87 374.4 543.87 274.76 555.87 274.76 555.87 385.62" fill="#bcbec0"/>
<rect x="566.73" y="274.77" width="144.07" height="110.86" fill="#d1d3d4"/>
<circle cx="586.87" cy="294.83" r="11.43" fill="#fff"/>
<path d="M591.58,296.4H583a1.45,1.45,0,0,0-.93,2.57l2.26,1.89a4.59,4.59,0,0,0,5.9,0l2.26-1.89A1.45,1.45,0,0,0,591.58,296.4Z" fill="#d1d3d4"/>
<rect x="603.89" y="283.4" width="99.42" height="22.86" rx="5.88" fill="#fff"/>
<rect x="575.44" y="315.15" width="99.42" height="22.86" rx="5.88" fill="#fff"/>
<path d="M664.06,324.62,687,338v34a6.21,6.21,0,0,0,6.21,6.21h85.69a5.56,5.56,0,0,0,5.56-5.56v-42.5a5.56,5.56,0,0,0-5.56-5.56Z" fill="#bcbec0"/>
<rect x="695.79" y="335.4" width="79.8" height="5.23" rx="2.62" fill="#fff"/>
<rect x="696.27" y="347.99" width="79.8" height="5.23" rx="2.62" fill="#fff"/>
<rect x="696.27" y="360.93" width="33.86" height="5.23" rx="2.62" fill="#fff"/>
<polygon points="646.79 604.07 625.15 452.23 782.44 452.23 802.68 604.07 646.79 604.07" fill="#d1d3d4"/>
<polygon points="664.06 583.32 648.82 473.49 766.24 473.49 781.42 583.32 664.06 583.32" fill="#fff"/>
<polygon points="664.06 555.99 653.37 476.02 762.7 476.02 770.8 537.77 736.17 492.22 710.8 546.37 686.78 519.04 664.06 555.99" fill="#bcbec0"/>
<circle cx="679.42" cy="497.58" r="12.38" fill="#fff"/>
<path d="M381.92,126.82H361.6V100.55a8.92,8.92,0,0,0-8.93-8.92h-109a8.92,8.92,0,0,0-8.93,8.92V153.1a8.93,8.93,0,0,0,8.93,8.92H352.67a8.93,8.93,0,0,0,8.93-8.92V142.93Z" fill="#ccc"/>
<rect x="253.53" y="110.96" width="87.25" height="5.95" rx="2.97" fill="#fafafa"/>
<rect x="253.53" y="123.85" width="87.25" height="5.95" rx="2.97" fill="#fafafa"/>
<rect x="253.53" y="136.74" width="57.5" height="5.95" rx="2.97" fill="#fafafa"/>
<polygon points="625.15 540.93 625.15 452.23 638.76 540.93 625.15 540.93" fill="#3f3d56" opacity="0.24"/>
<polygon points="452.09 250.72 449.85 231.31 431.84 236.34 436.39 254.97 452.09 250.72" fill="#f9b499"/>
<path d="M410.43,139.49l-.36,4.88s-4.14,7.84-4.51,14.85c-.22,4.08-.32,10.09-.35,14.41a18.31,18.31,0,0,0,2.77,9.84l8.3,13.29-1.15,15,15,30.09,22.24-5.63-2.64-55.55-9-29.33L439,137.4Z" fill="#2f2e41" data-secondary="true"/>
<path d="M455.24,136.43l.4,6.39s17.86-38,42.23-42.74c15.83-3,22.08,14.21,16.52,27.91-3.35,8.26-18.5,22.07-18.4,21.72s-9.37,4.2-9.37,4.2-11.59,23.17-14.8,26.52c-2.2,2.29-23.22,1.09-23.22,1.09l-7.3-15.09-2.94-28.91Z" fill="#2f2e41" data-secondary="true"/>
<path d="M446.88,37.3a6.54,6.54,0,1,1,8,9.72A4.4,4.4,0,0,1,451.09,55a4.3,4.3,0,0,1-4.41,2.78,7.61,7.61,0,0,1-4.84-2.62A11.82,11.82,0,0,1,439,44.28a10.45,10.45,0,0,1,8.1-7.57" fill="#2f2e41" data-secondary="true"/>
<path d="M449.85,34.37l.08.13a2.43,2.43,0,0,1,.18.4,5.6,5.6,0,0,1,.36,1.62,6.53,6.53,0,0,1-2,5.23v-.16a6.82,6.82,0,0,1,1.25,3,6.7,6.7,0,0,1-3.13,6.87,7,7,0,0,1-2.22.89,4.62,4.62,0,0,1-.65.08h-.23a3.09,3.09,0,0,0,.86-.18,7.39,7.39,0,0,0,2.15-1A6.73,6.73,0,0,0,448.49,42a2.2,2.2,0,0,0-.17-.25l-.06-.08.07-.08A6.16,6.16,0,0,0,450,39a6.76,6.76,0,0,0,.33-2.44A7.51,7.51,0,0,0,449.85,34.37Z" fill="#3f3d56"/>
<path d="M468.67,33.05a6.1,6.1,0,0,1-.7.41c-.45.26-1.12.61-1.94,1-1.66.85-4,2-6.56,3.13s-5,2.12-6.71,2.79c-.86.33-1.57.59-2.06.76-.25.09-.51.17-.77.24a3.73,3.73,0,0,1,.74-.33l2-.83c1.72-.71,4.09-1.7,6.67-2.85s4.91-2.25,6.58-3.06l2-1A3.91,3.91,0,0,1,468.67,33.05Z" fill="#0071f2" data-primary="true"/>
<path d="M462.53,27c.05,0-2.53,2.52-5.77,5.52s-5.89,5.39-5.93,5.34,2.53-2.52,5.77-5.52S462.49,26.91,462.53,27Z" fill="#0071f2" data-primary="true"/>
<path d="M434.4,16.76c0-5.06-6-5.31-9.11-4-1.65-2.25-2.83-3.39-6.61-3.63a11.71,11.71,0,0,0-9.16,4,10.09,10.09,0,0,0-1.13,10c.47,1.07,1.14,2.14,1,3.3-.2,1.67-1.91,2.65-3,3.92a6.41,6.41,0,0,0-.29,7.82c1.07,1.43,2.78,2.43,3.36,4.13.47,1.42,0,3,.11,4.47a7.47,7.47,0,0,0,4.82,6.16,11.61,11.61,0,0,0,8.07-.17" fill="#2f2e41" data-secondary="true"/>
<path d="M412.27,69.87l9.48-4.25.33-6.34S415,58.22,413.31,49c-.82-4.6-.72-12.17-.44-18.37.25-5.57,6.15-11.24,11.71-10.75l18,3.11v3l.18,41.26,15.06,6.33L431,93.73Z" fill="#f9b499"/>
<path d="M422.07,59.28a23.72,23.72,0,0,0,12.37-3.54s-3.19,6.54-12.49,5.84Z" fill="#7c3b29"/>
<path d="M410.42,19.37c1.42,3.27,4.66,8.18,8.2,8.61a10.51,10.51,0,0,0,9.43-4c.54,2.64,3.47,4.05,6.13,4.48a10.71,10.71,0,0,0,5.64-.38,5.62,5.62,0,0,0,3.57-4.14c.29-1.88-2.39-6.51-4.27-6.87" fill="#2f2e41" data-secondary="true"/>
<path d="M434.82,25.89a5.8,5.8,0,0,0-.13,4.39,5.93,5.93,0,0,0,3,3.21,6.88,6.88,0,0,0-1,5.95A16.4,16.4,0,0,0,439.56,45s-3.19,4.61,3.23,8c0,0,4.51-1.4,2.5-8.2a2,2,0,0,1,.08-1.48,2.51,2.51,0,0,1,1.11-.88,7.39,7.39,0,0,0,2.92-9.95,4.84,4.84,0,0,1-.63-1.39c-.13-.76-.71-2.76-.45-3.48,1.38-3.81-.39-8.54-4.86-10.89-3.58-1.88-8.06-2.19-10.8.78" fill="#2f2e41" data-secondary="true"/>
<path d="M398.43,85.37c1.28-11.12,8.41-13.61,8.41-13.61l-1.25,62.8-16.65,41.81-14.25-4.13S397.14,96.48,398.43,85.37Z" fill="#0071f2" data-primary="true"/>
<path d="M467.68,79.66s4.1,9.34,4.1,14.26,4.92,36.76,0,43.51-14.57,6.48-17.32,6.26c-3.75-.32-21.25-32.67-20.53-33.09l9.84-2.14s6.89.43,10.18,3.21,6.5-.43,6.5-.43l6.94-29.87" fill="#0071f2" data-primary="true"/>
<path d="M454,71.75s11.26,3.82,13.71,7.91S456,136.22,456,136.22l-45.54,3.27s-3.59-.66-4.57-3.92,1-63.82,1-63.82l11.73-5.38S425,72.9,428.87,74,454,71.75,454,71.75Z" fill="#0071f2" data-primary="true"/>
<path d="M409.75,87.94a1.35,1.35,0,0,1,.49,0l1.41.09,5.18.4c4.36.32,10.4.69,17.08.88s12.73.16,17.11.08l5.19-.11h1.41a1.35,1.35,0,0,1,.49,0,2,2,0,0,1-.49.07l-1.41.12c-1.22.09-3,.18-5.18.27-4.38.17-10.44.26-17.14.07s-12.73-.62-17.1-1c-2.18-.2-3.94-.4-5.16-.56l-1.4-.19A2,2,0,0,1,409.75,87.94Z" fill="#fafafa"/>
<path d="M421.51,105.37a8.3,8.3,0,0,1,1.41,0l3.83.17c3.24.15,7.71.32,12.66.41s9.42.06,12.66,0h3.84a6.65,6.65,0,0,1,1.41,0,7.43,7.43,0,0,1-1.41.16c-.9.07-2.21.14-3.83.2-3.25.13-7.73.21-12.68.13s-9.43-.32-12.67-.56c-1.61-.12-2.92-.24-3.83-.33A7.25,7.25,0,0,1,421.51,105.37Z" fill="#fafafa"/>
<path d="M458.49,99.43a6.78,6.78,0,0,1,2-.25,41.69,41.69,0,0,1,5,.06,41,41,0,0,1,4.93.63,6.65,6.65,0,0,1,2,.53c0,.15-3.11-.38-6.95-.64S458.5,99.58,458.49,99.43Z" fill="#fafafa"/>
<path d="M397.8,91.84a20.71,20.71,0,0,1,11.14,2.67c-.07.14-2.43-.89-5.5-1.62S397.79,92,397.8,91.84Z" fill="#fafafa"/>
<path d="M462.14,118.45a19.09,19.09,0,0,1,6.08,1,18.89,18.89,0,0,1,5.65,2.48c-.07.14-2.57-1-5.8-2S462.12,118.61,462.14,118.45Z" fill="#fafafa"/>
<path d="M459.35,143.75a4.82,4.82,0,0,1-.09-1.19c0-.77,0-1.88-.12-3.24a71.8,71.8,0,0,0-4.21-20.85c-.46-1.28-.85-2.32-1.14-3a5,5,0,0,1-.38-1.13,5.34,5.34,0,0,1,.57,1c.34.69.79,1.71,1.3,3a61.36,61.36,0,0,1,3,10.3,60.63,60.63,0,0,1,1.19,10.67v3.25A7.35,7.35,0,0,1,459.35,143.75Z" fill="#fafafa"/>
<path d="M406.37,133a8,8,0,0,1,1.54.19c1,.17,2.41.38,4.18.6a88.32,88.32,0,0,0,13.89.59,87.83,87.83,0,0,0,13.81-1.67c1.75-.35,3.16-.67,4.13-.92a8,8,0,0,1,1.52-.31A12.77,12.77,0,0,1,444,132c-1,.3-2.36.68-4.1,1.08A76.16,76.16,0,0,1,412,134.16c-1.77-.27-3.19-.54-4.17-.77A12.23,12.23,0,0,1,406.37,133Z" fill="#fafafa"/>
<path d="M391,118.91a7.89,7.89,0,0,1,2.22.14c1.36.17,3.24.49,5.28,1a49.78,49.78,0,0,1,5.16,1.45,8.58,8.58,0,0,1,2.06.84c0,.15-3.28-.85-7.34-1.78S391,119.06,391,118.91Z" fill="#fafafa"/>
<path d="M384.63,143.1a10.06,10.06,0,0,1,2.29.55c1.39.41,3.3,1,5.37,1.8s3.93,1.54,5.25,2.14a9.21,9.21,0,0,1,2.09,1.08,12.41,12.41,0,0,1-2.23-.74l-5.29-2-5.3-1.94A12.16,12.16,0,0,1,384.63,143.1Z" fill="#fafafa"/>
<path d="M377.72,163.59a8,8,0,0,1,2.08.64c1.26.47,3,1.18,4.83,2.05s3.5,1.74,4.66,2.41a8.41,8.41,0,0,1,1.83,1.18c-.07.13-3-1.38-6.71-3.11S377.66,163.72,377.72,163.59Z" fill="#fafafa"/>
<path d="M414.43,68.93a10.68,10.68,0,0,1,1.53.89A37.35,37.35,0,0,0,420.25,72a45.5,45.5,0,0,0,15.4,3.32,99.82,99.82,0,0,0,15.84-.72l4.8-.54a10.36,10.36,0,0,1,1.76-.14,14.46,14.46,0,0,1-1.74.34c-1.12.18-2.75.44-4.77.71a89.25,89.25,0,0,1-15.92.87,43.62,43.62,0,0,1-15.55-3.5A29.53,29.53,0,0,1,415.83,70c-.49-.31-.83-.59-1.08-.77A3,3,0,0,1,414.43,68.93Z" fill="#fafafa"/>
<g opacity="0.3">
<path d="M443.17,128c-2.36.59-4.74-.77-7.17-.9-2.2-.11-4.3.79-6.42,1.37a22.17,22.17,0,0,1-14-.84,3.79,3.79,0,0,1-1.42-.87,1.8,1.8,0,0,1-.27-1.77c4.1,0,8.17.13,12.27.09a4.73,4.73,0,0,0,2.43-.47,1.09,1.09,0,0,0,.43-.45s2.45-.08,3.32-.09c2,0,4.25.16,6.22.15.86,0,3.62.11,3.56.11"/>
</g>
<g opacity="0.3">
<path d="M456.65,110.46a19,19,0,0,1,9.36,4.61,3.08,3.08,0,0,1,.74.9,1.12,1.12,0,0,1,0,1.12,1.2,1.2,0,0,1-1.3.37,3.64,3.64,0,0,1-1.21-.76l-7.76-6.57"/>
</g>
<path d="M386.16,175.51l-2.39,6.19-25.06-.18s-1.18-1.24-.19-1.65c.36-.14,16.48-5.25,16.48-5.25l.73-2.13Z" fill="#f9b499"/>
<polygon points="423.36 110.44 418.6 100.17 402.22 99.14 401.64 100.09 414.06 124.02 429.02 124.14 423.36 110.44" fill="#2f2e41" data-secondary="true"/>
<path d="M422.78,111.37l-4.71-10.24-16.38-1L413.53,125l13.28.1a3.25,3.25,0,0,0,2.14-.82l.12-.11Z" fill="#2f2e41" data-secondary="true"/>
<path d="M410.36,69.87a.83.83,0,0,0,1.16-.05h0a.83.83,0,0,0,0-1.17.83.83,0,0,0-1.17.06.81.81,0,0,0,.06,1.15Z" fill="#ebebeb"/>
<path d="M442,111.92l-6.33.37a9,9,0,0,0-6.78-3.78l-2.27-.14L424.94,110s-11.11-.22-11.6,1.12v.7l9.43,1.23s-8-.53-8.54-.54-2.24-.28-2.26.67c0,.78.86,1.45,2.24,1.74.57.12,7.51,1.17,7.51,1.17l-7.68-.56c-.86,0-.84,1.33-.34,1.54s10.06,3.65,10.06,3.65a6.12,6.12,0,0,1-3.07.83c-1.34-.19-3.55-2.07-4.08-1.28s-.47,1.28-.19,1.49a35.44,35.44,0,0,0,4.4,2.41c1,.36,11.77-.18,11.77-.18l11.21.38Z" fill="#f9b499"/>
<path d="M421.16,109.9a31.75,31.75,0,0,1,3.9.1,29.6,29.6,0,0,1,3.88.35,60.61,60.61,0,0,1-7.78-.45Z" fill="#7c3b29"/>
<path d="M421.87,109.45s-.11-.21-.3-.61l-.78-1.71c-.69-1.55-1.61-3.59-2.67-5.93h.06l-3.75-.24-9-.6-2.74-.2-.75-.06h.75l2.75.15,9.05.56,3.75.24h0l2.61,6,.75,1.73C421.79,109.22,421.87,109.45,421.87,109.45Z" fill="#263238"/>
<path d="M485.14,164.3,474.24,178s26.28.7,9.25,17.39l-28.1-19.16,16.12-22.07Z" fill="#0071f2" data-primary="true"/>
<g opacity="0.6">
<path d="M455.39,176.25l1.47-2.33,26.49,19.44a1.73,1.73,0,0,1,.14,2Z" fill="#fff"/>
</g>
<path d="M451.63,245.92l2.58,17.33s18.46-18.72,19,5.12l-33.18,7.45L434.93,249Z" fill="#0071f2" data-primary="true"/>
<g opacity="0.6">
<path d="M440.05,275.82l-.7-2.67,32.29-6.08a1.74,1.74,0,0,1,1.59,1.3Z" fill="#fff"/>
</g>
<polygon points="495.99 149.71 484.64 163.93 471.82 154.41 482.71 137.75 495.99 149.71" fill="#f9b499"/>
<rect x="330.84" y="350.45" width="3.41" height="193.25" fill="#2f2e41" data-secondary="true"/>
<rect x="317.96" y="332.24" width="28.93" height="10.5" rx="3.75" fill="#2f2e41" data-secondary="true"/>
<ellipse cx="344.32" cy="337.49" rx="2.79" ry="5.25" fill="#2f2e41" data-secondary="true"/>
<ellipse cx="344.32" cy="337.49" rx="2.79" ry="5.25" opacity="0.2"/>
<path d="M181.27,414.54,197,432l31.18-10.87,1.47,20.58s-37.8,8.87-40.21,7.65-17.18-31.81-17.18-31.81Z" fill="#f9b499"/>
<path d="M188.31,422.38c-1.88-2-3.65-5.7-5.29-7.87-.58-.8-.44-2.93-.5-3.94a8.47,8.47,0,0,0-1.25-4l-.89-7.33-.5-.41a1.8,1.8,0,0,0-1.65,1.81v2.73s-7.34-10.21-9.14-9.95-1.4,1.51-1.4,1.51l4.61,7.45s-7.46-8.41-8.79-8.51-2.35.28-1.94,1.39,6.32,8.43,6.32,8.43-7-7.46-8.23-6.54,0,2.26.46,3L165,407s-4.59-3.6-5.39-2.9-.13,1.73.27,2,4.82,3.73,5.61,5.59,6.22,7.86,6.22,7.86l5.43,7.9Z" fill="#f9b499"/>
<path d="M208.62,426.33,233.76,415c4.1-1.36,14.51-2,14.51-2l-15.62,33.8-16,3.09Z" fill="#0071f2" data-primary="true"/>
<polygon points="260.94 651.34 261.72 660.43 261.2 673.46 243.88 673.87 244.63 661.47 243.78 652.23 260.94 651.34" fill="#0071f2" data-primary="true"/>
<polygon points="261.27 671.28 243.78 671.48 243.78 673.87 261.28 673.84 261.27 671.28" fill="#2f2e41" data-secondary="true"/>
<polygon points="283.01 651.34 283.8 660.43 283.27 673.46 265.96 673.87 266.69 661.47 265.85 652.23 283.01 651.34" fill="#0071f2" data-primary="true"/>
<polygon points="283.34 671.28 265.85 671.48 265.85 673.87 283.35 673.84 283.34 671.28" fill="#2f2e41" data-secondary="true"/>
<path d="M230.14,507.06l-1.43,34.66,5.73,56s.44,36.84,2.7,44.93a126.65,126.65,0,0,0,6.94,17.64l18-2.75L262,593.27l4.57-54V508.63Z" fill="#2f2e41" data-secondary="true"/>
<path d="M297.32,507.06l-.42,34-3.73,56.63s-.56,36.84-2.82,44.93a116.48,116.48,0,0,1-6.45,16.63H266l-.52-65.78L261,539.31V508.63Z" fill="#2f2e41" data-secondary="true"/>
<path d="M266.28,359.75l.47-.11a8.87,8.87,0,0,1,7.25-4.33,11.58,11.58,0,0,1,8.06,3c1.52,1.35,2.73,3,4.27,4.37a6.65,6.65,0,0,0,5.57,1.94c.25.75-1.14,1.25-1.06,2,0,.37.43.61.79.68a9,9,0,0,0,1.64,0,1.32,1.32,0,0,1,1.24.81,1.47,1.47,0,0,1,0,.78,14.15,14.15,0,0,1-3.24,6.35,7.45,7.45,0,0,1-6.49,2.37,11.8,11.8,0,0,1-5-2.79L271.27,368a18.9,18.9,0,0,1-3.63-3.46A6.48,6.48,0,0,1,266.28,359.75Z" fill="#2f2e41" data-secondary="true"/>
<path d="M268.07,360.22a9.48,9.48,0,0,0-4-2,5.59,5.59,0,0,0-4.27.82,11.88,11.88,0,0,0-2.6,3.22,5.19,5.19,0,0,1-3.22,2.48,1.31,1.31,0,0,0-.69.22c-.31.29-.08.88.3,1.05a2.05,2.05,0,0,0,1.25,0,4.56,4.56,0,0,1-2.68,1.51,2,2,0,0,0,2.4,1.38,20.37,20.37,0,0,0-.78,4.91,6.77,6.77,0,0,0,1.6,4.58c1.25,1.35,3.26,2.09,3.81,3.85" fill="#2f2e41" data-secondary="true"/>
<path d="M280,418.74l-22.19-.29,2.49-18.89s-1.52-.33-1.62-8.56-.49-22.19-.49-22.19h0a28.59,28.59,0,0,1,28.72,3.61l1.24.94Z" fill="#f9b499"/>
<path d="M285.57,383.47c.14,0,5.65-1.67,5.47,3.95s-5.78,4.29-5.79,4.13S285.57,383.47,285.57,383.47Z" fill="#f9b499"/>
<path d="M259.17,382.3c-.14,0-5.15-1.42-5,4.21s5.79,4.28,5.79,4.12S259.17,382.3,259.17,382.3Z" fill="#f9b499"/>
<path d="M287.4,382.85c-.84,4.71-.68,7.18-1.45,10.33a16.64,16.64,0,0,1-8.2,11.29c-4.48,2.48-10.55,2.48-14.4-1a13.17,13.17,0,0,1-5-8.54c-.39-3.54-1.44-10.18-1.46-13.74,0-6.42.17-12.18.17-12.18l18.34-3.32L285.85,372Z" fill="#2f2e41" data-secondary="true"/>
<path d="M268.43,407.3a6.2,6.2,0,0,0,3.22.29,6.1,6.1,0,0,0,3.07-1c0-.13-1.42.29-3.13.48S268.51,407.15,268.43,407.3Z" fill="#2f2e41" data-secondary="true"/>
<path d="M286.51,390.85c.54-4.82.89-10.34,1.64-15.44a31.73,31.73,0,0,0,.79-6.58c-.17-1.93-.69-1.35-1.54-3.09-1.07-2.17-5.15-3.64-7.53-4.11s-2.68-2.49-4.5-.95a6,6,0,0,0-10.86,2.49,4.14,4.14,0,0,0-6.82,4.15,4,4,0,0,0-2.72,6.22c.84,1.3,2.37,2,3.32,3.28a4.69,4.69,0,0,1,.27,5.07" fill="#2f2e41" data-secondary="true"/>
<path d="M262.89,389.85a8.92,8.92,0,0,0,.63,5,8.65,8.65,0,0,0,2.8,4.11,28.65,28.65,0,0,1-2.31-4.3A29.1,29.1,0,0,1,262.89,389.85Z" fill="#2f2e41" data-secondary="true"/>
<path d="M260.43,385.74a8.69,8.69,0,0,0,1.54,8.52,14.89,14.89,0,0,1-1.54-8.52Z" fill="#2f2e41" data-secondary="true"/>
<path d="M283.51,366.31a12.53,12.53,0,0,0-5.72-5.12,7.37,7.37,0,0,0-7.36.93" fill="#2f2e41" data-secondary="true"/>
<path d="M283.05,378.76a4.45,4.45,0,0,1,.19-1.66,23.15,23.15,0,0,0,.42-3.9,8.63,8.63,0,0,0-.85-3.73c-.43-.88-.88-1.34-.8-1.42s.62.3,1.24,1.25a7.48,7.48,0,0,1,1.09,3.94,14,14,0,0,1-.62,4C283.35,378.19,283.14,378.78,283.05,378.76Z" fill="#2f2e41" data-secondary="true"/>
<path d="M279.26,380.59A9.32,9.32,0,0,1,280,378c.45-1.41.72-2.58.91-2.55a4.34,4.34,0,0,1-.29,2.73C280.15,379.68,279.41,380.71,279.26,380.59Z" fill="#2f2e41" data-secondary="true"/>
<path d="M261.66,379.17a4.53,4.53,0,0,1-1.25-2,10,10,0,0,1,2.15-10.77A4.85,4.85,0,0,1,264.5,365c.06.09-.67.61-1.6,1.68a10.51,10.51,0,0,0-2,10.29C261.26,378.36,261.74,379.12,261.66,379.17Z" fill="#2f2e41" data-secondary="true"/>
<path d="M281.7,358.21a8.33,8.33,0,0,1-1.82-.76,10.55,10.55,0,0,0-4.41-1.09,5.45,5.45,0,0,0-4,1.69,12.05,12.05,0,0,0-1,1.6c-.07,0-.1-.84.66-1.89a5,5,0,0,1,1.72-1.43,5.92,5.92,0,0,1,2.64-.62,9.25,9.25,0,0,1,4.64,1.33A9,9,0,0,1,281.7,358.21Z" fill="#2f2e41" data-secondary="true"/>
<path d="M256.62,363.47c-.07,0,.06-.66.66-1.49a6.1,6.1,0,0,1,3.21-2.27,6.23,6.23,0,0,1,3.93.19c.94.4,1.39.86,1.35.91s-.58-.21-1.5-.46a6.48,6.48,0,0,0-3.6,0,6.73,6.73,0,0,0-3,1.92C257,363,256.71,363.52,256.62,363.47Z" fill="#2f2e41" data-secondary="true"/>
<path d="M262.66,384.13c0-.08.91-.33,2.39-1a19,19,0,0,0,5.43-3.73l1.06-1-.57,1.38a12,12,0,0,0-.8,2.66c-.1.46-.16,1.06,0,1.14s.64-.12,1.06-.41a16.7,16.7,0,0,0,3.73-3.34l1-1.16-.45,1.45c-.45,1.44-.86,2.8-1.24,4l-.42-.25a25.73,25.73,0,0,0,3.59-4.53,4.39,4.39,0,0,1-.64,1.47,14.9,14.9,0,0,1-2.59,3.42l-.7.68.27-.93c.35-1.24.72-2.6,1.15-4.05l.52.27a16.37,16.37,0,0,1-3.89,3.49,4.42,4.42,0,0,1-.72.43.93.93,0,0,1-1.43-1,4.73,4.73,0,0,1,.11-.78,13.17,13.17,0,0,1,.87-2.8l.49.34a17.77,17.77,0,0,1-5.7,3.58A8.25,8.25,0,0,1,262.66,384.13Z" fill="#2f2e41" data-secondary="true"/>
<path d="M273.4,362.45a2.82,2.82,0,0,0-1.76-1.37,5.21,5.21,0,0,0-2.29,0,8.24,8.24,0,0,0-4.79,2.76c-.27.34-.52.85-.22,1.16a1,1,0,0,0,.63.21,34.74,34.74,0,0,0,8.28-.29" fill="#2f2e41" data-secondary="true"/>
<path d="M232.6,426.17s-1.71,67.7-1.24,69.21S228.29,511,229.65,515h33l36.18-1.92-7.25-31.75.63-8.05s8.21-48,8.84-48.48-19.45-11.19-19.45-11.19l-21.82-2.14L242,413.9Z" fill="#0071f2" data-primary="true"/>
<path d="M329.9,458.47l-8.24,9.31-6.91-13.85L300,461.65c.6,1.08,11.19,22.85,19.11,22.86,5,0,7.8-3.44,11.61-8.92a71.64,71.64,0,0,0,6.7-13Z" fill="#f9b499"/>
<path d="M291.88,446.27l4.79,19.17s9.44-1.24,13.95-3.95a37.87,37.87,0,0,0,7.34-5.63s-9.61-22-11.43-25.8c-2.48-5.18-9-6.86-9-6.86l-7.37,11.52Z" fill="#0071f2" data-primary="true"/>
<path d="M280.59,469.56a5.63,5.63,0,0,1-1.34.24l-3.73.44c-3.12.37-7.46.88-12.16,1.54s-9,1.32-12.12,1.8l-3.67.58a6.3,6.3,0,0,1-1.37.13,4.75,4.75,0,0,1,1.32-.38c.86-.2,2.1-.46,3.64-.77,3.09-.61,7.36-1.35,12.11-2s9.06-1.09,12.2-1.34c1.56-.12,2.83-.21,3.73-.25A5,5,0,0,1,280.59,469.56Z" fill="#263238"/>
<path d="M283.16,485.77c0,.18-8.17.48-18.25.68s-18.26.21-18.27,0,8.17-.48,18.26-.68S283.16,485.59,283.16,485.77Z" fill="#263238"/>
<path d="M185.73,444a3.39,3.39,0,0,0,1.38-3.84,4,4,0,0,0-3.45-2.81,3,3,0,0,0,.71-2.3,2.17,2.17,0,0,0-1.55-1.75,2,2,0,0,0-2.18,1.24l2.49,4.82Z" fill="#f4a48e"/>
<g opacity="0.3">
<path d="M294.83,457.39a23.3,23.3,0,0,0,3.22-21.72q-1.74,10.84-3.48,21.65"/>
</g>
<path d="M330.59,445.49a4,4,0,0,0-1.81,3.5,30.42,30.42,0,0,0,1.51,6.67l-3.82,6.68,8.26,6.37,5.78-7.46s7.21-6.56,7.39-7.94-1.38-2.61-1.38-2.61.59-2.61-.6-3.62-1.1-.46-1.1-.46,0-2.9-1.79-3a20.26,20.26,0,0,0-3.73.22s.36-9.42-.51-10.13a1.61,1.61,0,0,0-2.28-.06,1.58,1.58,0,0,0-.44.72c-.19.93-2,12.5-2.29,12.79h0a1.76,1.76,0,0,1-2.49-.05,1.85,1.85,0,0,1-.42-.7Z" fill="#f9b499"/>
<path d="M479.25,294.84a12.18,12.18,0,0,0-10.51,6,12.21,12.21,0,1,0,0,12.38,12.21,12.21,0,1,0,10.51-18.4Z" fill="#fff"/>
<path d="M462,341.58h-6.11a6.73,6.73,0,0,1-6.73-6.72V324.64a6.73,6.73,0,0,1,6.44-6.72l28.16-.2a4.15,4.15,0,0,1,4.32,4.14l-1,13.58a4.14,4.14,0,0,1-4.14,4.14Z" fill="#fff"/>
<path d="M486.41,325.44l9.12-11.06a2,2,0,0,1,1.56-.74h0a2,2,0,0,1,2,1.94l.83,20.87a3.14,3.14,0,0,1-3.14,3.27h0a3.17,3.17,0,0,1-2.2-.89l-8.19-8Z" fill="#fff"/>
<path d="M455.87,349.2l7.15-9.48,11.18-1.24,7,7.62a3.26,3.26,0,0,1-.32,4.71h0a3.26,3.26,0,0,1-4.44-.24l-7.62-7.95-8.34,10.21a2.93,2.93,0,0,1-4.06.46h0A2.93,2.93,0,0,1,455.87,349.2Z" fill="#fff"/>
<path d="M333,350.45h-1a5.64,5.64,0,0,1,5.64-5.63h8.94a3.42,3.42,0,0,0,0-6.83H344.1v-1h2.52a4.42,4.42,0,0,1,0,8.83h-8.94A4.64,4.64,0,0,0,333,350.45Z" fill="#2f2e41" data-secondary="true"/>
</svg>